<?xml version="1.0" encoding="UTF-8" standalone="no"?>
<svg
   xmlns:dc="http://purl.org/dc/elements/1.1/"
   xmlns:cc="http://creativecommons.org/ns#"
   xmlns:rdf="http://www.w3.org/1999/02/22-rdf-syntax-ns#"
   xmlns:svg="http://www.w3.org/2000/svg"
   xmlns="http://www.w3.org/2000/svg"
   xmlns:sodipodi="http://sodipodi.sourceforge.net/DTD/sodipodi-0.dtd"
   xmlns:inkscape="http://www.inkscape.org/namespaces/inkscape"
   version="1.1"
   id="svg2"
   xml:space="preserve"
   width="1333.3333"
   height="1333.3333"
   viewBox="0 0 1333.3333 1333.3333"
   sodipodi:docname="1 Finance Logo_Final.ai"><metadata
     id="metadata8"><rdf:RDF><cc:Work
         rdf:about=""><dc:format>image/svg+xml</dc:format><dc:type
           rdf:resource="http://purl.org/dc/dcmitype/StillImage" /></cc:Work></rdf:RDF></metadata><defs
     id="defs6"><clipPath
       clipPathUnits="userSpaceOnUse"
       id="clipPath42"><path
         d="M 0,1000 H 1000 V 0 H 0 Z"
         id="path40" /></clipPath></defs><sodipodi:namedview
     pagecolor="#ffffff"
     bordercolor="#666666"
     borderopacity="1"
     objecttolerance="10"
     gridtolerance="10"
     guidetolerance="10"
     inkscape:pageopacity="0"
     inkscape:pageshadow="2"
     inkscape:window-width="640"
     inkscape:window-height="480"
     id="namedview4" /><g
     id="g10"
     inkscape:groupmode="layer"
     inkscape:label="1 Finance Logo_Final"
     transform="matrix(1.3333333,0,0,-1.3333333,0,1333.3333)"><g
       id="g12"
       transform="translate(499.4684,907.5377)"><path
         d="m 0,0 -353.302,-113.025 0.02,-477.787 L 0,-478.017 Z"
         style="fill:#000000;fill-opacity:1;fill-rule:nonzero;stroke:none"
         id="path14" /></g><g
       id="g16"
       transform="translate(499.4684,907.5377)"><path
         d="m 0,0 -353.302,-113.025 0.02,-477.787 L 0,-478.017 Z"
         style="fill:none;stroke:#000000;stroke-width:12.965;stroke-linecap:round;stroke-linejoin:round;stroke-miterlimit:10;stroke-dasharray:none;stroke-opacity:1"
         id="path18" /></g><g
       id="g20"
       transform="translate(278.4889,240.1516)"><path
         d="M 0,0 -15.532,-4.969 V -25.974 L 0,-21.015 Z"
         style="fill:#000000;fill-opacity:1;fill-rule:nonzero;stroke:none"
         id="path22" /></g><g
       id="g24"
       transform="translate(278.4889,240.1516)"><path
         d="M 0,0 -15.532,-4.969 V -25.974 L 0,-21.015 Z"
         style="fill:none;stroke:#000000;stroke-width:0.065;stroke-linecap:round;stroke-linejoin:round;stroke-miterlimit:10;stroke-dasharray:none;stroke-opacity:1"
         id="path26" /></g><g
       id="g28"
       transform="translate(148.2278,94.3287)"><path
         d="M 0,0 V 142.392 H 92.004 V 126.903 H 17.169 V 79.128 H 83.232 V 63.825 H 17.169 L 17.169,0 Z"
         style="fill:#000000;fill-opacity:1;fill-rule:nonzero;stroke:none"
         id="path30" /></g><g
       id="g32"
       transform="translate(262.6266,94.3287)"><path
         d="m 0,0 v 98.135 l 15.862,5.112 V 0 Z"
         style="fill:#000000;fill-opacity:1;fill-rule:nonzero;stroke:none"
         id="path34" /></g><g
       id="g36"><g
         id="g38"
         clip-path="url(#clipPath42)"><g
           id="g44"
           transform="translate(308.7208,197.53)"><path
             d="m 0,0 h 15.862 v -6.718 c 0,-1.744 -0.158,-3.205 -0.466,-4.387 -0.313,-1.184 -0.905,-2.331 -1.773,-3.45 l 2.613,-1.681 c 4.726,6.467 9.391,11.105 13.996,13.904 4.601,2.8 10.013,4.198 16.236,4.198 14.557,0 24.695,-5.411 30.42,-16.236 2.114,-4.106 3.452,-8.305 4.011,-12.597 0.561,-4.292 0.841,-8.99 0.841,-14.09 v -62.144 H 65.876 v 62.144 c 0,10.948 -1.99,18.662 -5.972,23.143 -3.484,3.853 -8.77,5.785 -15.862,5.785 -7.838,0 -14.122,-2.552 -18.849,-7.652 -3.359,-3.484 -5.756,-8.276 -7.185,-14.369 -1.432,-6.099 -2.146,-14.435 -2.146,-25.009 v -44.042 H 0 Z"
             style="fill:#000000;fill-opacity:1;fill-rule:nonzero;stroke:none"
             id="path46" /></g><g
           id="g48"
           transform="translate(467.533,110.0053)"><path
             d="m 0,0 c 6.094,3.108 10.573,7.278 13.436,12.503 2.115,3.733 3.514,7.278 4.2,10.637 0.682,3.359 1.087,5.414 1.213,6.159 0.372,1.866 0.869,3.233 1.493,4.106 0.62,0.868 1.554,1.368 2.799,1.493 l -0.56,2.985 -24.074,-5.037 -13.25,-2.614 c -7.716,-1.493 -13.375,-3.919 -16.983,-7.278 -2.863,-2.865 -4.292,-6.47 -4.292,-10.825 0,-4.728 1.772,-8.522 5.318,-11.384 3.546,-2.862 8.305,-4.292 14.277,-4.292 5.972,0 11.446,1.181 16.423,3.547 m -42.83,-9.704 c -6.036,5.224 -9.05,12.378 -9.05,21.46 0,8.958 3.359,16.05 10.077,21.276 5.473,4.352 13.372,7.586 23.701,9.703 l 36.764,7.092 c 0.123,7.96 -1.992,14.119 -6.346,18.476 -4.728,4.727 -11.074,7.092 -19.034,7.092 -6.346,0 -11.851,-1.712 -16.516,-5.131 C -27.9,66.84 -30.856,62.268 -32.1,56.545 h -15.862 c 1.741,10.326 6.5,18.383 14.277,24.167 7.773,5.788 16.824,8.679 27.154,8.679 6.093,0 11.757,-0.904 16.982,-2.705 5.226,-1.807 9.64,-4.449 13.25,-7.932 4.726,-4.48 7.711,-9.643 8.958,-15.491 1.242,-5.847 1.866,-11.881 1.866,-18.102 V -15.677 H 18.662 v 4.852 c 0,3.108 0.621,6.656 1.866,10.637 L 17.916,0.933 C 14.557,-4.418 10.637,-8.585 6.159,-11.57 c -3.112,-2.117 -6.626,-3.641 -10.544,-4.572 -3.92,-0.933 -8.556,-1.401 -13.904,-1.401 -10.328,0 -18.508,2.614 -24.541,7.839"
             style="fill:#000000;fill-opacity:1;fill-rule:nonzero;stroke:none"
             id="path50" /></g><g
           id="g52"
           transform="translate(531.1691,197.53)"><path
             d="m 0,0 h 15.862 v -6.718 c 0,-1.744 -0.159,-3.205 -0.468,-4.387 -0.311,-1.184 -0.904,-2.331 -1.772,-3.45 l 2.614,-1.681 c 4.726,6.467 9.39,11.105 13.996,13.904 4.601,2.8 10.012,4.198 16.236,4.198 14.555,0 24.695,-5.411 30.42,-16.236 2.115,-4.106 3.453,-8.305 4.013,-12.597 0.559,-4.292 0.839,-8.99 0.839,-14.09 v -62.144 H 65.875 v 62.144 c 0,10.948 -1.989,18.662 -5.971,23.143 -3.484,3.853 -8.77,5.785 -15.862,5.785 -7.839,0 -14.124,-2.552 -18.85,-7.652 -3.359,-3.484 -5.756,-8.276 -7.184,-14.369 -1.432,-6.099 -2.146,-14.435 -2.146,-25.009 v -44.042 H 0 Z"
             style="fill:#000000;fill-opacity:1;fill-rule:nonzero;stroke:none"
             id="path54" /></g><g
           id="g56"
           transform="translate(662.1741,99.3685)"><path
             d="m 0,0 c -7.589,4.601 -13.502,11.011 -17.729,19.221 -4.232,8.211 -6.344,17.478 -6.344,27.806 0,10.078 2.112,19.159 6.344,27.247 4.227,8.085 10.14,14.399 17.729,18.942 7.589,4.54 16.236,6.812 25.942,6.812 11.57,0 21.368,-2.956 29.393,-8.864 8.023,-5.911 13.217,-13.905 15.582,-23.982 H 53.934 c -1.992,5.722 -5.506,10.294 -10.543,13.719 -5.04,3.419 -10.856,5.131 -17.449,5.131 -6.472,0 -12.289,-1.681 -17.451,-5.04 C 3.328,77.633 -0.745,72.996 -3.733,67.09 -6.718,61.178 -8.211,54.493 -8.211,47.027 -8.211,39.311 -6.75,32.438 -3.825,26.405 -0.904,20.369 3.173,15.643 8.399,12.223 13.625,8.799 19.47,7.09 25.942,7.09 c 7.09,0 13.217,1.929 18.382,5.787 5.161,3.853 8.614,8.956 10.357,15.303 H 71.662 C 69.425,17.23 64.165,8.645 55.894,2.426 47.618,-3.798 37.635,-6.906 25.942,-6.906 16.236,-6.906 7.589,-4.606 0,0"
             style="fill:#000000;fill-opacity:1;fill-rule:nonzero;stroke:none"
             id="path58" /></g><g
           id="g60"
           transform="translate(775.3587,156.0079)"><path
             d="m 0,0 c 1.428,0.559 3.2,0.839 5.317,0.839 h 46.282 c 2.364,0 4.355,-0.28 5.974,-0.839 1.615,-0.559 3.171,-1.464 4.663,-2.706 l 2.055,2.238 c -1.247,0.871 -2.023,1.647 -2.335,2.334 -0.311,0.683 -0.59,1.585 -0.839,2.706 -0.373,2.238 -0.996,4.353 -1.866,6.344 -2.612,5.848 -6.624,10.386 -12.035,13.625 -5.414,3.234 -11.479,4.852 -18.197,4.852 -6.844,0 -12.848,-1.618 -18.009,-4.852 C 5.845,21.302 1.833,16.764 -1.027,10.916 -2.146,8.551 -2.833,6.438 -3.079,4.572 -3.205,3.451 -3.453,2.58 -3.827,1.958 -4.201,1.336 -5.011,0.528 -6.253,-0.468 l 2.052,-2.238 C -2.833,-1.464 -1.432,-0.559 0,0 m 2.985,-56.639 c -7.651,4.601 -13.595,10.945 -17.822,19.033 -4.232,8.088 -6.345,17.169 -6.345,27.247 0,9.58 1.987,18.444 5.971,26.595 3.981,8.146 9.735,14.71 17.263,19.687 7.526,4.975 16.391,7.466 26.593,7.466 8.833,0 17.044,-1.992 24.635,-5.971 C 60.867,33.434 66.965,27.62 71.568,19.969 76.169,12.315 78.475,3.14 78.475,-7.56 v -5.597 H 4.758 -0.374 c -2.551,0 -4.885,0.121 -6.998,0.372 l -0.559,-2.986 c 1.119,-0.25 1.895,-0.653 2.332,-1.213 0.434,-0.559 0.807,-1.492 1.119,-2.799 0.308,-1.305 0.653,-2.52 1.027,-3.639 2.611,-7.963 6.812,-14.309 12.597,-19.036 5.785,-4.729 12.347,-7.092 19.689,-7.092 7.464,0 13.871,1.99 19.222,5.973 5.348,3.982 9.204,9.019 11.57,15.117 h 16.983 c -3.359,-10.451 -9.084,-18.915 -17.169,-25.382 -8.09,-6.47 -18.228,-9.704 -30.42,-9.704 -9.704,0 -18.382,2.301 -26.034,6.907"
             style="fill:#000000;fill-opacity:1;fill-rule:nonzero;stroke:none"
             id="path62" /></g><g
           id="g64"
           transform="translate(499.4684,907.5378)"><path
             d="M 0,0 353.303,-113.025 353.283,-590.812 0,-478.017 Z"
             style="fill:none;stroke:#000000;stroke-width:12.965;stroke-linecap:round;stroke-linejoin:round;stroke-miterlimit:10;stroke-dasharray:none;stroke-opacity:1"
             id="path66" /></g><g
           id="g68"
           transform="translate(684.9838,686.9114)"><path
             d="m 0,0 -3.436,1.433 c -4.203,-7.256 -9.262,-13.272 -15.18,-18.042 -6.681,-5.728 -14.174,-10.549 -22.479,-14.46 -8.304,-3.914 -15.991,-6.444 -23.049,-7.588 v 31.785 c 13.743,2.866 26.101,8.736 37.081,17.611 10.977,8.878 19.332,18.659 25.056,29.351 L 30.926,29.548 V -189.171 L -2.866,-178.38 V -20.045 C -2.866,-12.983 -1.912,-6.298 0,0"
             style="fill:#000000;fill-opacity:1;fill-rule:nonzero;stroke:none"
             id="path70" /></g></g></g></g></svg>
